<?xml version="1.0" encoding="UTF-8"?>
<svg width="108px" height="108px" viewBox="0 0 108 108" version="1.1" xmlns="http://www.w3.org/2000/svg" xmlns:xlink="http://www.w3.org/1999/xlink">
    <title>river_foreground copy 3@1x</title>
    <defs>
        <rect id="path-1" x="0" y="0" width="81" height="81"></rect>
    </defs>
    <g id="river_foreground-copy-3" stroke="none" stroke-width="1" fill="none" fill-rule="evenodd">
        <g id="face-simple-copy" transform="translate(14, 14)">
            <mask id="mask-2" fill="white">
                <use xlink:href="#path-1"></use>
            </mask>
            <g id="Mask"></g>
            <g mask="url(#mask-2)" id="Group">
                <g transform="translate(37.3067, 42.9971) rotate(-72) translate(-37.3067, -42.9971)translate(-21.1598, -12.9418)">
                    <g transform="translate(-0, 0)">
                        <path d="M16.6973628,96.7993454 C21.469915,97.2575599 28.362004,97.9064413 33.125735,98.2731902 C35.6202885,98.4652402 37.5011118,98.5918024 38.253095,98.5475567 C46.0636664,98.0879932 49.0914332,75.303379 49.9048422,74.0725979 C50.9663266,72.4664503 52.7577085,72.4147595 53.9829537,71.7416495 C55.6973892,70.7997942 53.1941152,64.9736969 52.817779,64.166067 C51.0855412,60.4486281 48.859115,57.6983636 48.1570801,54.8422732 C47.5779098,52.4860329 48.0383262,50.8190391 48.1570801,47.8494278 C48.9338633,28.4248573 39.224074,15.2161494 19.0277122,8.22330404 C7.24595612,0.329975664 0.925825587,10.0843203 0.0673206464,37.486338 C-1.22043676,78.5893645 16.3896589,96.7698026 16.6973628,96.7993454 Z" id="Path-2" fill="#FFFFFF"></path>
                        <path d="M58.4129925,85.8515644 C65.6928051,86.5497254 97.1770992,112.006068 99.3675429,111.877815 C107.186801,111.417765 110.217935,88.6331504 111.032249,87.4023693 C112.094914,85.7962217 113.888288,85.7445309 115.114896,85.0714209 C116.831238,84.1295656 117.08758,83.2862503 116.864602,82.7404724 C116.48227,81.8046467 114.32518,78.3034683 113.948426,77.4958384 C112.214261,73.7783995 109.985359,71.028135 109.282543,68.1720446 C108.702729,65.8158043 109.163657,64.1488105 109.282543,61.1791992 C110.06019,41.7546287 100.339602,28.5459208 80.1207778,21.5530754 C65.2797845,64.3833332 58.043856,85.8161629 58.4129925,85.8515644 Z" id="Path-2-Copy" fill="#FFFFFF" transform="translate(87.6663, 66.7154) scale(-1, 1) translate(-87.6663, -66.7154)"></path>
                        <path d="M44.849362,12.0886149 C52.4788909,15.4723767 61.177966,19.6663594 66.4558208,24.4320065 C78.6447065,35.4379794 82.5648113,47.6497682 84.2308093,46.8004376 C86.6181936,45.5833421 81.4418558,33.4870841 95.9858038,16.7371035 C96.5407382,16.0979964 55.9511858,-1.06041393 48.7603583,0.0518058737 C40.1633285,1.38152584 44.5708985,11.965114 44.849362,12.0886149 Z" id="Path-2-Copy" fill="#FFFFFF" transform="translate(69.7327, 23.4212) scale(-1, 1) translate(-69.7327, -23.4212)"></path>
                    </g>
                </g>
            </g>
        </g>
    </g>
</svg>